<svg width="32" height="32" viewBox="0 0 32 32" fill="none" xmlns="http://www.w3.org/2000/svg">
<mask id="mask0_247_1330" style="mask-type:alpha" maskUnits="userSpaceOnUse" x="0" y="0" width="32" height="32">
<rect width="32" height="32" fill="#D9D9D9"/>
</mask>
<g mask="url(#mask0_247_1330)">
<path d="M14.6667 22.6666H17.3334V17.3333H22.6667V14.6666H17.3334V9.33329H14.6667V14.6666H9.33341V17.3333H14.6667V22.6666ZM16.0001 29.3333C14.1556 29.3333 12.4223 28.9833 10.8001 28.2833C9.17786 27.5833 7.76675 26.6333 6.56675 25.4333C5.36675 24.2333 4.41675 22.8222 3.71675 21.2C3.01675 19.5777 2.66675 17.8444 2.66675 16C2.66675 14.1555 3.01675 12.4222 3.71675 10.8C4.41675 9.17774 5.36675 7.76663 6.56675 6.56663C7.76675 5.36663 9.17786 4.41663 10.8001 3.71663C12.4223 3.01663 14.1556 2.66663 16.0001 2.66663C17.8445 2.66663 19.5779 3.01663 21.2001 3.71663C22.8223 4.41663 24.2334 5.36663 25.4334 6.56663C26.6334 7.76663 27.5834 9.17774 28.2834 10.8C28.9834 12.4222 29.3334 14.1555 29.3334 16C29.3334 17.8444 28.9834 19.5777 28.2834 21.2C27.5834 22.8222 26.6334 24.2333 25.4334 25.4333C24.2334 26.6333 22.8223 27.5833 21.2001 28.2833C19.5779 28.9833 17.8445 29.3333 16.0001 29.3333Z" fill="#A6BCCB"/>
</g>
</svg>
