<svg width="364" height="23" viewBox="0 0 364 23" fill="none" xmlns="http://www.w3.org/2000/svg">
<path d="M225.485 2.44943C228.278 2.57041 231.117 2.67081 233.982 2.7511C241.638 2.96654 249.482 3.03343 257.153 2.98576C261.611 2.95901 266.01 2.8948 270.287 2.81394C272.053 2.77836 271.967 3.45196 272.468 3.51507C273.838 3.68632 274.606 2.8461 275.593 2.8421C277.135 2.83406 278.641 2.79966 280.133 2.74792C283.29 2.63808 286.375 2.453 289.559 2.26531C294.355 1.96009 292.363 4.29449 294.098 4.5907C297.502 5.14034 294.347 2.8175 295.538 2.0394C297.984 1.81116 300.476 1.59685 302.997 1.35652C304.385 1.21893 305.835 1.10447 307.297 1.01631C306.304 1.40298 305.323 1.79611 304.365 2.18616C306.144 1.9584 308.796 2.03832 305.888 3.15601C306.574 3.25408 307.227 3.39586 307.927 3.49859C307.99 2.47933 311.116 2.0426 311.349 1.44046C311.58 0.824285 309.814 1.14277 309.819 1.09393C309.832 0.829479 310.792 0.680223 312.038 0.624479C314.284 0.513431 317.421 0.760183 317.756 0.798858C319.142 0.944057 318.001 2.23262 319.16 2.09679C320.564 1.9385 320.265 0.675722 320.969 1.0811C321.26 1.25028 321.726 1.70764 322.541 2.66023C323.579 1.5524 323.691 2.10975 325.041 2.16078C325.219 2.16728 325.071 1.54422 325.149 1.52666C327.191 1.03532 325.631 2.21838 325.644 2.28125C325.844 3.34598 328.017 2.85185 328.477 2.95633C328.892 3.04748 329.298 3.13742 329.696 3.22594C332.768 3.90911 335.411 4.49974 338.23 4.94497C340.122 5.24441 342.092 5.48076 344.315 5.64048C344.816 5.67606 345.719 5.64503 346.707 5.60424C348.258 5.54097 350.016 5.44969 350.773 5.56984C351.996 5.76408 351.33 6.52725 351.97 6.90426C352.826 5.39655 353.627 4.99044 355.156 5.55702C355.435 5.67552 355.527 5.84268 355.928 5.98778C355.976 5.77256 356.012 5.61184 356.048 5.49236C356.217 4.90919 356.44 5.31615 357.144 5.049C357.283 4.99419 357.442 4.91067 357.623 4.78353C357.821 4.64412 358.033 4.44002 358.268 4.20162C358.605 3.8595 358.989 3.44428 359.471 3.05787C359.931 2.68959 360.488 2.34488 361.154 2.15711C361.883 1.94677 362.773 1.95264 363.5 2.35397C362.288 2.3277 361.776 2.60278 361.359 2.86157C360.9 3.17177 360.569 3.54671 359.918 4.06337C359.77 4.18174 359.606 4.30816 359.423 4.44286C359.319 4.51895 359.013 4.68933 358.616 4.9139C358.258 5.11502 357.826 5.35943 357.382 5.59677C356.998 5.80171 356.605 5.99909 356.234 6.16001C355.816 6.33274 355.546 6.45139 355.156 6.54849C354.108 6.76316 353.376 7.07718 353.552 7.5669C353.7 7.97552 354.486 7.94449 355.156 7.8612C355.686 7.79797 356.106 7.60582 356.154 7.65721C356.663 8.11252 356.214 8.98729 355.156 9.18063C354.88 9.24227 354.579 9.24214 354.288 9.15441C354.553 9.00667 354.869 8.85662 355.156 8.70788C355.173 8.70008 355.19 8.69221 355.207 8.68427C355.19 8.67857 355.173 8.67297 355.156 8.66746C355.156 8.66746 355.156 8.66746 355.156 8.66746C352.718 7.75514 354.395 11.4157 352.514 8.17388C352.281 7.77325 352.375 7.35854 351.992 6.93133C351.911 7.10576 352.381 7.54452 351.972 7.61843C351.554 7.69302 350.774 6.85887 350.647 7.55202C350.457 8.56094 352.192 8.18274 352.322 8.24182C352.323 8.23573 352.324 8.22964 352.326 8.22355C353.474 8.77019 351.067 8.81016 350.95 8.9024C350.197 9.52231 350.699 10.0144 349.572 10.5181C348.928 10.8053 347.304 10.6014 346.704 10.6847C346.665 10.6903 346.632 10.6976 346.606 10.7065C346.42 10.7678 346.504 10.9017 346.599 11.0339C346.701 11.176 346.816 11.316 346.621 11.3618C346.611 11.364 346.602 11.366 346.592 11.3677C346.195 11.4394 345.715 11.0856 345.253 11.192C345.051 11.2401 345.05 11.7734 344.952 11.7899C343.904 11.9723 344.613 10.8786 343.665 10.9252C343.051 10.9566 340.975 11.9434 342.383 12.2834C341.7 12.3753 341.036 12.4387 340.359 12.5076C340.781 12.6756 341.219 12.7933 341.631 12.9892C340.364 12.7065 339.77 13.606 338.975 13.6568C338.658 13.6769 338.359 13.5136 338.057 13.3421C337.601 13.0825 337.139 12.8039 336.608 13.1157C335.457 13.792 336.743 13.886 338.046 13.9113C338.866 13.9271 339.694 13.915 339.914 13.9984C340.136 14.083 339.259 14.9216 339.126 14.9433C338.771 15.0004 338.382 14.7943 338.031 14.6261C337.8 14.5157 337.585 14.4216 337.406 14.429C335.791 14.5001 334.793 15.2925 333.269 15.4364C332.115 15.5455 330.906 15.6536 329.673 15.7624C326.964 16.0007 324.143 16.2469 321.526 16.4994C319.97 16.6487 318.486 16.799 317.132 16.9391C315.405 17.1183 314.29 16.3128 313.511 16.4031C313.508 16.4035 313.506 16.4038 313.503 16.4042C311.69 16.6415 311.552 17.4572 310.009 17.6877C308.809 17.8737 307.336 17.9004 305.811 17.9575C304.403 18.0199 303.051 18.0455 302.036 18.1315C300.531 18.2602 299.277 19.2136 298.886 19.2877C293.405 20.3536 286.769 21.0271 282.243 21.3915C282.019 21.4101 281.807 21.418 281.606 21.4171C279.894 21.4094 278.997 20.7795 278.607 20.8299C276.731 21.0645 277.283 21.7666 275.748 21.7873C274.919 21.7973 274.724 21.0985 274.612 21.0774C273.629 20.8992 273.485 21.8322 272.726 21.902C268.364 22.3 264.141 21.8299 259.838 21.8124C259.525 21.8105 259.546 21.4005 259.345 21.4246C258.478 21.5377 258.891 22.1771 257.983 22.2354C257.774 22.249 257.563 22.2599 257.353 22.2685C255.664 22.3369 253.934 22.2524 252.158 22.1773C251.96 22.1689 251.872 21.6424 251.42 21.6409C250.967 21.6395 250.622 22.1373 249.91 22.1051C248.052 22.0211 246.228 21.4026 244.269 21.3359C243.945 21.3255 243.531 21.9523 243.044 21.9358C241.514 21.8858 239.27 21.2543 237.965 21.1952C236.382 21.126 234.843 21.1097 233.328 21.1081C230.726 21.1053 228.196 21.1462 225.643 21.0325C224.693 20.9889 223.881 20.3619 223.388 20.3242C222.278 20.2401 223.09 20.8356 221.963 20.7824C217.813 20.5825 213.668 20.3025 209.523 20.0065C204.479 19.6463 199.434 19.2623 194.375 18.9701C191.754 18.8179 188.707 18.9332 185.907 18.8713C184.84 18.8476 183.809 18.7981 182.85 18.6977C181.405 18.545 181.187 17.7637 180.164 17.6979C178.337 17.5848 177.951 18.5485 176.023 18.5415C174.485 18.5351 172.785 17.4625 171.189 17.4441C169.594 17.4262 168.817 18.3439 166.983 18.3751C165.695 18.3964 163.986 18.0205 162.487 17.9141C162.227 17.8956 161.975 17.8853 161.732 17.8866C153.022 17.9364 144.565 18.1687 135.887 18.3017C129.617 18.3989 123.31 18.4462 116.917 18.3427C114.393 18.3017 111.738 18.3614 109.052 18.3631C106.027 18.3649 102.961 18.2931 99.9934 17.9181C99.4669 17.851 100.229 16.8972 98.5602 17.1599C97.6635 17.3021 96.4387 18.1476 94.3559 18.2743C90.3129 18.5192 86.1656 18.5627 81.9709 18.5293C73.3146 18.4611 64.4668 18.0618 55.8979 18.4335C55.4984 18.4509 55.0986 18.4707 54.6984 18.4926C45.5969 18.9931 36.2871 20.596 27.1839 20.7831C17.6322 20.9881 8.27602 19.6041 0.441938 13.9328C-0.322298 13.3781 0.365762 11.1293 0.914709 10.5273C1.31343 11.0404 1.67117 11.6369 2.08875 12.2111C2.96817 9.39816 2.78461 10.1401 4.94525 10.6028C6.27525 10.8857 5.31315 9.55916 6.05973 9.27491C7.03202 8.91649 11.476 7.83861 10.4964 9.6757C10.7912 9.366 11.064 9.06829 11.3503 8.76438C14.5152 8.70911 17.5988 8.41757 20.6948 8.02233C21.2298 7.9527 21.2833 7.35505 21.8345 7.28532C23.3146 7.0927 24.4636 7.53501 25.9811 7.53071C26.6981 7.52842 26.8962 7.00727 27.6424 6.92435C27.7542 6.91189 27.8783 6.90921 28.0183 6.91951C29.0919 6.99779 29.0428 7.93285 30.5397 6.95705C29.6153 5.76092 33.8543 6.72051 35.3758 6.66676C35.5971 6.66182 37.4169 5.63471 38.3732 5.76504C39.3331 5.89448 40.7914 6.58009 42.2837 6.20281C42.9833 6.02549 43.4083 5.20532 44.1606 5.15895C44.6895 5.12643 45.3265 5.8556 45.9981 5.8841C46.6695 5.91309 48.1179 5.3062 48.3834 5.29415C49.3429 5.24776 48.2875 5.76837 48.9445 5.78946C50.6994 5.84093 52.6134 5.93193 54.5036 5.93213C56.0301 5.93242 57.5404 5.87369 58.9365 5.68988C59.3206 5.63986 58.7751 5.04681 58.8259 5.02556C61.4214 4.22705 60.0447 5.04464 60.763 5.56996C61.4584 6.08143 66.4619 5.66135 66.4673 4.60673C66.6595 5.91778 67.7436 4.88 68.0312 4.83239C69.1518 4.64859 68.9669 5.79346 70.0475 5.40661C70.4439 5.26551 69.6393 4.52149 70.0704 4.53017C71.1355 4.55173 72.1345 5.75553 73.5571 5.8299C73.9006 5.84825 73.9925 5.29405 74.6018 5.29112C75.2114 5.28904 77.7915 5.86816 76.5697 4.7509C78.1534 5.62366 78.4469 5.10151 80.2507 5.05781C80.5609 5.05113 80.9473 5.44688 81.4645 5.60399C81.7094 5.67839 81.9834 5.69927 82.2925 5.59856C82.6178 5.49223 82.5742 4.63788 83.069 4.6112C84.2002 4.54769 85.3028 5.38947 86.7423 5.36564C89.4342 5.32326 92.2724 4.58139 95.0888 4.68581C95.8543 4.71479 95.6997 5.58201 96.8101 5.55248C96.9732 5.54568 98.2792 4.74708 99.0496 4.78535C99.5131 4.80809 101.928 5.2325 102.412 5.25517C103.213 5.2902 103.323 4.45339 103.767 4.59842C105.05 5.0166 104.084 6.28027 105.54 4.54642C106.077 5.4545 106.963 5.32709 107.292 6.45842C107.607 5.60383 108.035 5.85492 108.581 5.97292C108.848 6.03053 109.143 6.05642 109.467 5.90651C110.455 5.44918 111.192 2.99448 111.53 5.59455C111.988 5.26003 113.97 4.64805 114.306 4.59715C115.298 4.4512 114.79 5.1911 115.538 5.06819C115.669 5.04747 115.514 4.55842 116.365 4.57895C116.922 4.59114 121.007 4.49546 121.253 4.55812C124.057 5.25189 119.751 5.09005 119.166 5.64495C119.056 5.50791 118.947 5.37038 118.829 5.23525C117.593 5.0407 118.328 6.13366 118.892 6.3752C119.457 6.61657 120.482 6.08859 120.955 6.44133C121.191 6.6185 121.087 7.95939 120.386 7.81855C121.143 8.2083 120.139 8.6732 120.445 9.05148C120.781 9.46454 124.126 9.50231 124.125 8.76658C123.5 8.75723 122.723 8.80381 122.09 8.79135C121.225 7.53485 123.621 3.0889 125.981 4.7807C127.686 6.00608 124.948 7.07261 128.886 5.92424C128.275 5.88561 127.757 5.77731 127.202 5.73625C127.121 4.77721 128.044 5.81287 128.5 5.49767C128.72 5.34344 127.332 4.69304 128.52 4.44111C129.573 5.79303 130.333 4.39514 132.054 4.34934C131.58 4.60232 131.106 4.8545 130.633 5.10833C133.552 6.05133 126.824 6.50273 132.47 6.95878C131.793 7.01414 131.118 7.01429 130.438 7.09479C130.777 7.59249 130.277 9.08171 130.578 9.38869C131.367 10.1944 132.5 9.68006 133.444 9.73798C133.857 9.76214 133.607 10.1654 133.642 10.1672C134.207 10.2032 134.074 9.61951 134.57 9.57534C134.832 9.55213 135.305 9.63552 135.786 9.7353C136.447 9.87235 137.123 10.0406 137.291 10.0014C138.045 9.82856 136.776 8.68512 136.847 8.59831C137.324 8.03342 138.315 8.48909 138.257 7.75756C137.631 7.89574 136.693 7.95744 135.765 7.95185C133.182 7.93775 130.665 7.39279 135.214 6.43552C133.67 5.39762 133.881 3.97629 135.713 3.57521C135.928 3.52828 136.165 3.49549 136.424 3.47919C138.465 3.35136 137.154 4.01773 138.222 4.72673C138.361 4.81394 141.092 5.14127 141.231 4.63444C141.126 5.80467 142.015 6.83798 141.425 8.0469C141.338 8.2242 140.223 8.15913 140.617 9.12796C140.814 9.61449 141.374 10.6735 141.286 11.2945C141.513 10.8621 141.75 10.376 141.981 9.92522C143.647 9.79619 143.884 10.2626 144.792 11.069C144.752 10.733 143.912 9.31923 145.19 9.75167C145.255 9.7776 145.311 10.2841 145.958 10.5382C147.267 11.0486 147.536 11.2079 146.525 12.6895C149.236 11.859 149.797 13.523 152.563 13.0814C152.052 11.1607 151.064 11.6141 148.524 11.9582C148.418 11.5023 148.37 11.0516 148.26 10.591C151.636 11.6571 149.959 11.5344 151.893 10.6373C152.367 10.4163 154.867 10.7071 154.061 9.40354C153.87 9.0959 152.308 9.10305 152.496 8.62892C152.532 8.53757 154.439 8.34163 154.603 8.46961C156.665 10.0427 152.888 11.0056 158.674 10.6035C158.833 10.5919 158.908 10.037 159.222 9.96917C159.812 9.84297 159.797 10.488 160.324 10.3564C160.852 10.2247 161.61 9.38305 162.365 10.2146C163.743 11.729 160.328 12.4364 158.852 11.6212C158.56 12.4417 160.415 12.9706 162.666 13.3203C165.609 13.774 169.214 13.9177 169.595 13.8441C172.534 13.2736 167.679 13.4502 167.451 12.9133C167.358 12.6851 167.531 9.85049 166.224 11.6368C165.839 12.1661 167.325 12.9517 166.407 13.2125C165.49 13.4736 165.883 12.6542 165.82 12.593C165.603 12.3833 164.627 12.6522 164.506 12.5287C162.654 10.6534 162.94 7.94271 165.329 12.0612C166.479 11.2018 163.985 9.64803 165.393 9.09127C167.108 8.41499 168.28 9.76585 168.488 9.83375C170.988 10.6429 168.154 8.61533 171.221 9.36815C172.927 9.78897 168.586 10.4967 172.521 10.5686C175.815 10.6331 174.074 9.88502 174.389 8.40353C174.464 8.05706 176.295 7.72352 173.824 7.74827C173.735 8.1337 173.577 8.63964 173.403 8.99043C172.815 8.67525 171.904 6.67734 171.586 6.59344C170.031 6.19236 170.061 7.20756 169.189 5.97307C169.791 7.30671 168.751 6.47107 168.336 6.72772C166.794 7.674 168.742 8.13664 165.437 6.68736C165.85 7.31671 166.22 7.93324 166.618 8.56026C166.215 8.56351 165.811 8.56754 165.408 8.57139C164.863 7.20021 162.714 7.28549 164.708 6.01043C164.011 5.86574 163.438 5.78842 162.962 5.77869C161.851 5.75629 161.267 6.10045 160.883 6.8199C160.779 7.01634 160.425 7.08412 160.012 7.08996C160.08 7.3868 160.147 8.29935 160.078 8.40875C159.465 9.37023 158.624 7.64906 158.952 7.01152C158.665 6.97187 158.438 6.92897 158.357 6.91093C157.849 6.79573 158.871 6.23986 158.463 6.02737C158.328 5.95757 156.882 6.04569 156.861 5.80777C156.729 4.28138 159.083 5.43325 154.321 4.43826C154.174 5.82244 156.398 5.56686 155.789 7.02825C155.139 8.59695 153.949 6.44738 153.633 8.3855C153.539 8.06416 153.5 7.79694 153.421 7.43166C151.481 8.24413 151.485 6.6281 150.9 6.26201C149.762 5.5434 144.499 5.611 149.209 7.05126C148.517 7.18411 147.813 7.24297 147.127 7.36218C146.989 4.46138 147.4 5.6119 144.089 5.16071C143.36 5.06209 143.121 3.786 142.407 5.30276C142.502 3.81483 140.343 4.71987 140.142 4.54161C138.836 3.3727 143.651 1.71992 144.265 4.35527C145.078 3.33335 145.072 4.68614 145.978 4.51041C147.286 4.25813 147.473 3.99537 149.017 5.00819C150.563 3.60911 143.029 4.34836 147.605 2.51061C149.634 1.69447 156.13 1.08444 163.154 0.854845C171.903 0.555007 181.656 0.74108 185.065 0.788321C185.728 0.79774 186.371 0.80696 186.998 0.816087C196.443 0.956581 202.088 1.05034 210.613 1.59724C211.075 1.62672 211.544 1.65747 212.024 1.68955C213.005 1.75992 220.386 2.03064 218.767 3.56823C218.535 3.7903 215.322 4.23355 217.98 5.65667C217.466 4.87443 219.095 4.47232 219.233 4.3999C222.407 2.76058 220.649 2.23454 225.485 2.44943ZM239.395 17.4768C232.975 16.9192 237.666 18.144 236.253 20.5578C237.082 20.5907 237.908 20.6217 238.738 20.6513C238.524 20.4914 238.314 20.332 238.1 20.172C238.099 20.1719 238.098 20.1719 238.097 20.1719C238.531 19.2741 238.965 18.3756 239.395 17.4768ZM343.448 13.8716C343.191 14.1891 342.937 14.5072 342.66 14.8172C341.817 14.6978 340.98 14.5802 340.142 14.4613C340.247 14.2443 340.349 14.0246 340.455 13.8077C341.449 13.8392 342.444 13.8722 343.448 13.8716ZM157.953 11.9503C156.793 11.0202 156.852 12.624 155.299 11.8572C155.461 13.0438 155.643 14.2054 155.812 15.3808C157.007 15.235 157.293 14.7925 158.579 15.1193C158.441 14.7348 158.299 14.3481 158.164 13.9615C157.945 14.0368 157.712 14.1231 157.5 14.1895C157.199 13.1164 159.284 13.0176 157.957 11.948C157.955 11.9487 157.954 11.9495 157.953 11.9503ZM145.806 12.2344C145.169 12.076 142.638 11.4955 142.294 11.9876C141.131 13.6449 148.248 12.5991 143.002 14.0704C143.026 14.3034 143.002 14.5318 143.002 14.7625C143.958 14.8435 144.909 14.9155 145.87 14.9849C145.822 14.0656 145.86 13.1584 145.806 12.2344ZM216.184 16.5944C215.201 16.4146 210.443 16.9226 211.919 18.0613C212.354 18.3953 214.546 17.0132 215.342 17.1224C215.858 17.1932 215.231 17.985 216.272 17.7386C216.246 17.373 216.24 16.9688 216.181 16.5967C216.182 16.5959 216.183 16.5951 216.184 16.5944ZM218.296 11.901C217.269 11.9932 216.225 12.1225 215.19 12.2211C215.887 13.2018 217.395 12.6795 217.41 14.0048C217.123 14.0897 216.84 14.1741 216.553 14.2588C216.354 13.9582 216.158 13.6575 215.962 13.357C215.041 14.0254 215.555 14.4121 213.924 14.112C214.803 16.1639 214.932 17.2481 217.859 15.3811C217.267 16.4354 217.58 19.993 219.279 17.5529C219.596 17.1001 218.391 16.7228 218.381 16.6474C218.243 15.7105 218.951 15.1549 218.796 14.2686C218.727 13.8678 217.983 13.8342 217.902 13.2783C217.865 13.0074 218.612 12.28 218.296 11.901ZM220.084 16.7086C219.738 17.2537 220.753 18.6425 221.71 18.4194C223.199 18.073 220.947 16.6909 220.084 16.7086ZM343.453 13.8705C343.451 13.8708 343.45 13.8712 343.448 13.8716C343.449 13.8704 343.45 13.8692 343.451 13.868C343.451 13.8688 343.452 13.8696 343.453 13.8705ZM149.085 12.9085C148.332 13.3784 147.224 13.3009 147.3 14.0615C146.937 13.9097 146.57 13.7606 146.206 13.6095C146.208 13.838 146.214 14.067 146.216 14.2932C147.312 14.4408 148.4 14.5922 149.489 14.7488C149.36 14.1361 149.24 13.5213 149.085 12.9085ZM137.107 12.3801C135.723 12.3177 136.894 13.3393 136.596 13.8418C136.462 14.0674 136.139 14.1126 135.838 14.1588C135.469 14.2156 135.132 14.2739 135.217 14.6674C135.424 14.6719 135.634 14.6764 135.844 14.681C136.46 14.6945 137.087 14.7084 137.699 14.7219C137.475 13.9447 137.316 13.1526 137.105 12.3801C137.106 12.3801 137.107 12.3801 137.107 12.3801ZM265.746 18.2758C264.781 18.0811 265.151 17.2833 263.286 18.2571C263.287 18.2571 263.289 18.2571 263.29 18.257C265.104 18.8583 267.452 19.3576 269.418 18.6482C268.167 17.8672 267.267 18.5767 265.746 18.2758ZM161.149 14.3815C161.568 13.7703 159.743 13.1843 159.317 13.7533C158.629 14.6721 160.511 15.3075 161.149 14.3815ZM303.507 9.17168C304.599 7.03442 301.569 5.36837 298.94 6.69969C298.711 6.81779 300.607 7.14953 300.132 7.6012C300.084 7.64651 299.086 7.75085 298.881 8.05103C298.676 8.35244 299.029 8.93003 298.664 9.24758C298.021 9.80471 296.296 9.19098 295.849 9.85441C295.789 9.94401 296.904 10.6329 296.972 10.6548C298.073 11.0114 298.9 9.78928 299.056 9.75897C299.864 9.60155 299.873 10.4624 300.11 10.6297C300.558 10.944 301.184 10.4654 301.236 10.4854C302.592 11.032 299.731 11.2606 299.391 11.6172C298.479 12.5882 299.562 13.2181 297.124 14.0324C296.895 14.1093 294.025 14.4449 297.764 14.9027C290.913 17.8319 301.529 15.557 302.566 14.8905C303.061 14.6061 302.132 13.9298 302.392 13.5177C302.986 12.5767 304.197 12.2265 303.891 11.0804C303.243 8.67331 301.898 10.5415 300.716 10.2991C300.748 9.74892 300.709 9.22304 300.841 8.66901C300.62 9.4246 303.427 9.33633 303.508 9.17649C303.507 9.17489 303.507 9.17328 303.507 9.17168ZM286.21 14.2834C284.56 13.688 284.814 15.2374 283.285 14.4726C282.125 15.9846 284.645 15.6729 284.948 15.7216C286.326 15.9494 286.446 17.4747 287.783 16.8682C287.217 16.0157 286.741 15.1437 286.21 14.2834ZM300.046 13.2414C299.111 14.1825 301.001 13.8878 301.1 14.0242C302.195 15.4947 296.453 16.0193 300.046 13.2414ZM210.233 13.0971C210.063 13.0698 209.977 13.1315 209.924 13.2344C209.811 13.4518 209.841 13.8532 209.512 13.9862C209.027 14.1842 207.453 13.4384 207.465 13.9125C207.477 14.3879 210.362 15.7913 207.377 15.8785C207.461 16.1499 207.415 16.3458 207.45 16.5885C208.202 16.6404 208.962 16.6963 209.716 16.748C209.779 16.7523 209.842 16.7567 209.905 16.7609C209.849 16.6499 209.792 16.5381 209.735 16.4257C209.387 15.7385 209.036 15.0324 208.705 14.3759C209.199 13.7954 209.41 14.5903 209.434 14.5918C209.434 14.591 209.434 14.5902 209.434 14.5894C209.569 14.5877 209.711 14.5545 209.849 14.4988C210.591 14.2001 211.238 13.2571 210.233 13.0971ZM252.368 16.9956C252.532 15.0947 251.26 17.2162 250.734 17.4489C250.211 17.6814 249.498 16.9725 249.762 17.7926C250.605 18.3638 252.352 17.2085 252.368 16.9932C252.368 16.994 252.368 16.9948 252.368 16.9956ZM277.615 14.9905C276.318 15.5387 276.557 16.0198 274.897 15.5548C274.987 16.0099 275.078 16.475 275.168 16.9231C276.467 16.8535 276.29 15.5286 277.821 15.9639C278.073 16.0353 277.619 17.1355 278.706 16.7163C278.343 16.1718 277.973 15.5645 277.615 14.9905ZM271.116 17.0694C272.649 16.9246 273.658 13.1494 270.942 14.9634C270.54 15.2332 269.966 17.1763 271.116 17.0694ZM224.199 13.7576C221.628 13.5258 224.525 14.2678 225.171 14.869C219.145 15.0365 225.853 14.7488 226.37 16.6701C227.131 16.1628 228.558 14.9857 227.047 14.5877C226.416 14.4218 226.623 14.9975 226.585 14.9935C225.419 14.8005 225.603 13.8823 224.199 13.7576ZM288.946 13.9135C288.852 13.9517 289.073 14.574 288.775 14.7345C288.476 14.8944 287.726 14.5199 287.696 14.9188C287.665 15.3211 289.116 15.4803 289.52 15.1448C289.923 14.8074 289.801 13.5732 288.946 13.9135ZM278.899 13.2196C277.641 13.7726 279.922 15.9814 280.209 15.9466C282.679 15.632 278.871 13.9771 278.899 13.2196ZM230.347 10.0079C227.205 11.0793 229.374 13.2625 231.277 14.5881C231.544 14.3442 231.817 14.1 232.08 13.8579C230.854 15.3555 228.739 16.8042 233.357 15.631C230.873 15.1758 232.98 14.8387 232.999 14.752C233.376 11.9293 229.641 13.103 230.349 10.008C230.349 10.0079 230.348 10.0079 230.347 10.0079ZM293.232 14.104C294.6 13.9351 298.059 12.9682 296.243 11.9668C295.249 12.6846 294.246 13.3973 293.232 14.104ZM179.643 7.27913C178.578 6.51102 177.559 6.46637 176.194 6.43953C177.365 7.53318 176.552 7.60746 176.125 7.83681C175.478 8.18178 176.998 8.23255 176.998 8.30222C176.917 9.27692 175.942 9.375 178.144 9.47294C177.581 9.7827 177.026 10.0958 176.464 10.404C178.138 10.5396 178.497 11.1989 179.516 12.0366C178.591 10.0779 179.882 11.3439 181.17 10.4695C181.813 10.0315 180.185 7.67156 179.639 7.27889C179.64 7.27897 179.641 7.27905 179.643 7.27913ZM227.169 9.49041C226.836 9.81883 226.523 10.2691 226.198 10.6466C225.86 10.6686 225.522 10.6858 225.184 10.7074C225.157 10.4026 225.137 10.0841 225.103 9.79067C224.665 9.68173 224.817 10.1115 224.684 10.1449C224.684 10.1433 224.684 10.1416 224.684 10.14C222.772 10.6091 222.001 10.507 220.573 9.49518C220.525 10.4229 220.477 11.3506 220.429 12.2783C220.766 12.2071 221.107 12.138 221.444 12.0686C221.646 11.5791 221.848 11.0892 222.05 10.5995C222.421 10.8937 222.788 11.1856 223.159 11.4794C223.476 11.3152 223.855 11.1444 224.13 10.9825C225.542 13.6499 222.136 11.7202 222.051 12.7935C221.995 13.486 225.519 13.6261 226.048 13.1693C226.124 13.1026 225.452 11.1368 226.692 12.2013C226.885 12.3686 226.773 16.5516 228.31 13.2279C228.528 12.7563 227.95 10.1308 227.169 9.49041ZM214.515 7.49297C216.335 10.2786 209.218 7.03382 212.232 9.41375C211.264 10.5888 211.431 10.5825 212.272 11.7246C212.346 11.8269 211.701 12.1278 211.752 12.1737C212.563 12.824 213.601 12.5637 213.546 13.6564C213.778 13.6113 213.996 13.5717 214.229 13.5265C213.334 12.4431 214.889 11.8375 215.523 11.0011C215.811 10.6225 215.205 10.4669 215.449 10.1351C215.539 10.014 216.38 10.3125 216.435 9.95386C216.553 9.14249 216.077 8.0113 215.202 7.35933C215.202 7.35852 215.202 7.3577 215.202 7.35689C214.971 7.39764 214.746 7.45003 214.515 7.49297ZM256.53 10.9765C256.876 12.452 258.235 12.8646 255.644 13.609C255.775 13.8995 255.909 14.1875 256.04 14.4779C256.453 14.4506 256.854 14.4231 257.271 14.3966C257.297 14.3949 257.323 14.3933 257.349 14.3916C258.63 10.0224 261.128 14.8956 259.524 11.832C259.349 11.4991 258.322 11.8895 259.328 10.9622C259.327 10.9614 259.325 10.9606 259.324 10.9598C258.241 11.1899 257.883 11.5495 257.239 11.3478C257.04 11.2851 256.813 11.1683 256.53 10.9765ZM246.987 11.987C243.643 15.0613 251.534 13.7727 250.22 12.9271C250.104 12.8552 246.711 13.4913 246.987 11.987ZM273.231 8.78429C271.769 8.80952 271.755 10.4889 271.934 11.086C272.113 11.6847 273.1 11.019 273.236 11.1068C273.682 11.3979 272.784 11.6552 273.365 12.0558C273.555 12.1887 276.162 12.6336 276.277 12.551C276.905 12.1082 275.861 10.7867 276.039 10.6164C276.611 10.0594 277.482 10.723 277.608 9.97574C277.878 8.38213 276.461 10.132 276.201 10.1742C275.424 10.2983 275.438 9.41052 274.844 9.26885C274.251 9.12697 273.887 9.45137 273.369 9.4173C273.197 9.40582 273.305 8.78581 273.231 8.78429ZM268.543 12.5572C270.027 11.226 266.235 9.99376 265.806 10.2997C264.526 11.2268 267.823 13.198 268.543 12.5572ZM219.233 11.7955C220.691 10.9496 217.448 10.0321 216.49 10.3493C216.642 10.7417 218.731 12.0873 219.233 11.7955ZM231.204 10.0469C229.899 10.2821 231.532 12.4258 232.618 12.4329C233.302 11.0928 232.696 11.3415 231.992 11.2587C231.288 11.1751 232.221 9.86275 231.204 10.0469ZM289.182 9.01006C288.91 9.02757 284.553 10.5965 287.169 10.8054C287.37 10.8254 290.484 10.2902 290.696 10.0492C291.124 9.57258 289.9 8.99339 289.182 9.01006ZM237.466 8.24775C236.748 9.40704 236.074 9.36955 236.66 10.7744C236.661 10.7744 236.662 10.7745 236.663 10.7745C234.915 11.1438 234.934 8.30609 234.56 8.35437C233.316 8.51298 234.303 10.3782 233.684 11.1082C233.651 11.1469 233.614 11.1825 233.571 11.2145C233.609 11.2036 233.646 11.1935 233.682 11.1841C235.478 10.7106 234.935 12.0021 236.357 12.1328C236.683 12.1622 238.011 11.389 238.215 10.888C238.419 10.3871 237.799 8.8507 237.466 8.24775ZM295.412 7.95726C293.865 7.70713 292.729 9.77608 294.858 9.80974C295.901 9.82364 296.361 8.10665 295.412 7.95726ZM143.624 5.49605C143.858 5.99766 144.098 6.49731 144.347 6.99457C143.784 7.11494 143.22 7.23864 142.656 7.36295C143.102 7.20375 143.547 7.04744 143.997 6.89157C142.939 6.71595 142.452 5.80441 143.621 5.49605C143.622 5.49605 143.623 5.49605 143.624 5.49605ZM105.928 5.99594C105.436 5.53184 104.565 7.06301 104.687 7.1749C105.61 8.00817 106.61 6.6394 105.928 5.99594ZM217.396 7.14824C215.662 6.84342 216.728 9.33768 217.792 9.56217C217.162 9.06232 218.381 7.32081 217.396 7.14824ZM119.166 5.64495C119.331 5.84903 119.496 6.05312 119.68 6.25702C119.115 5.98338 119.012 5.79107 119.166 5.64495ZM288.246 6.95146C287.963 6.79611 286.011 6.84053 285.77 7.09383C285.27 7.63005 286.922 8.81893 287.776 8.31319C287.872 8.259 288.527 7.10922 288.242 6.9519C288.243 6.95175 288.244 6.95161 288.246 6.95146ZM141.235 4.56851C141.238 4.59177 141.236 4.61398 141.231 4.63444C141.232 4.61275 141.232 4.5903 141.235 4.56851ZM66.4489 4.49613C66.4607 4.53352 66.4675 4.57078 66.4673 4.60673C66.4622 4.57158 66.4528 4.53472 66.4489 4.49613ZM274.397 6.01937C273.618 3.74557 272.207 5.05613 273.443 6.13543C273.512 6.19208 274.24 6.02433 274.397 6.01937Z" fill="#CFE6DF"/>
</svg>
